<svg width="34" height="36" viewBox="0 0 34 36" fill="none" xmlns="http://www.w3.org/2000/svg">
<path d="M23.7465 10C23.6144 14.7201 19.7523 18.5 15 18.5C10.1641 18.5 6.25 14.5859 6.25 9.75C6.25 4.91406 10.1641 1 15 1C17.066 1 18.9638 1.71439 20.46 2.90985C19.5685 3.64347 19 4.75535 19 6C19 8.20914 20.7909 10 23 10H23.7465Z" fill="white"/>
<path d="M20.3516 21H21C25.9688 21 30 25.0312 30 30V32.25C30 34.3203 28.3203 36 26.25 36H3.75C1.67969 36 0 34.3203 0 32.25V30C0 25.0312 4.03125 21 9 21H9.64844C11.2812 21.7812 13.0781 22.25 15 22.25C16.9219 22.25 18.7266 21.7812 20.3516 21Z" fill="white"/>
<path d="M28 0C27.4477 0 27 0.447715 27 1V5H23C22.4477 5 22 5.44772 22 6C22 6.55228 22.4477 7 23 7H27V11C27 11.5523 27.4477 12 28 12C28.5523 12 29 11.5523 29 11V7H33C33.5523 7 34 6.55228 34 6C34 5.44772 33.5523 5 33 5H29V1C29 0.447715 28.5523 0 28 0Z" fill="white"/>
</svg>
