<svg width="50" height="36" viewBox="0 0 50 36" fill="none" xmlns="http://www.w3.org/2000/svg">
<path d="M15 18C19.8359 18 23.75 14.0859 23.75 9.25C23.75 4.41406 19.8359 0.5 15 0.5C10.1641 0.5 6.25 4.41406 6.25 9.25C6.25 14.0859 10.1641 18 15 18ZM21 20.5H20.3516C18.7266 21.2812 16.9219 21.75 15 21.75C13.0781 21.75 11.2812 21.2812 9.64844 20.5H9C4.03125 20.5 0 24.5313 0 29.5V31.75C0 33.8203 1.67969 35.5 3.75 35.5H26.25C28.3203 35.5 30 33.8203 30 31.75V29.5C30 24.5313 25.9687 20.5 21 20.5ZM37.5 18C41.6406 18 45 14.6406 45 10.5C45 6.35938 41.6406 3 37.5 3C33.3594 3 30 6.35938 30 10.5C30 14.6406 33.3594 18 37.5 18ZM41.25 20.5H40.9531C39.8672 20.875 38.7188 21.125 37.5 21.125C36.2812 21.125 35.1328 20.875 34.0469 20.5H33.75C32.1562 20.5 30.6875 20.9609 29.3984 21.7031C31.3047 23.7578 32.5 26.4844 32.5 29.5V32.5C32.5 32.6719 32.4609 32.8359 32.4531 33H46.25C48.3203 33 50 31.3203 50 29.25C50 24.4141 46.0859 20.5 41.25 20.5Z" fill="white"/>
</svg>
