<svg width="241" height="144" viewBox="0 0 241 144" fill="none" xmlns="http://www.w3.org/2000/svg">
<path d="M134.76 36C130.14 38.1 125.16 39.48 120 40.14C125.28 36.96 129.36 31.92 131.28 25.86C126.3 28.86 120.78 30.96 114.96 32.16C110.22 27 103.56 24 96.0003 24C81.9003 24 70.3803 35.52 70.3803 49.74C70.3803 51.78 70.6203 53.76 71.0403 55.62C49.6803 54.54 30.6603 44.28 18.0003 28.74C15.7803 32.52 14.5203 36.96 14.5203 41.64C14.5203 50.58 19.0203 58.5 25.9803 63C21.7203 63 17.7603 61.8 14.2803 60V60.18C14.2803 72.66 23.1603 83.1 34.9203 85.44C31.1453 86.4776 27.1805 86.6214 23.3403 85.86C24.9699 90.9749 28.1615 95.4504 32.4664 98.6576C36.7713 101.865 41.973 103.642 47.3403 103.74C38.2423 110.943 26.9644 114.836 15.3603 114.78C13.3203 114.78 11.2803 114.66 9.2403 114.42C20.6403 121.74 34.2003 126 48.7203 126C96.0003 126 121.98 86.76 121.98 52.74C121.98 51.6 121.98 50.52 121.92 49.38C126.96 45.78 131.28 41.22 134.76 36Z" fill="#1D9BF0"/>
<path d="M81.6878 115.88V91.9716H72.2591V86.4154H97.9354V91.9716H88.5067V115.88H81.6878ZM104.962 115.88L96.7963 93.2343H102.984L109.761 112.723H106.814L113.886 93.2343H119.442L126.303 112.723H123.357L130.344 93.2343H136.153L127.945 115.88H121.589L115.569 99.1694H117.506L111.276 115.88H104.962ZM139.205 115.88V93.2343H145.772V115.88H139.205ZM142.488 90.0774C141.282 90.0774 140.3 89.7266 139.542 89.0251C138.784 88.3236 138.406 87.4537 138.406 86.4154C138.406 85.3771 138.784 84.5072 139.542 83.8057C140.3 83.1041 141.282 82.7533 142.488 82.7533C143.695 82.7533 144.677 83.0901 145.435 83.7636C146.193 84.409 146.571 85.2508 146.571 86.2891C146.571 87.3835 146.193 88.2955 145.435 89.0251C144.705 89.7266 143.723 90.0774 142.488 90.0774ZM161.126 116.217C158.46 116.217 156.384 115.543 154.897 114.196C153.409 112.821 152.666 110.787 152.666 108.093V88.2254H159.232V108.009C159.232 108.963 159.485 109.706 159.99 110.24C160.495 110.745 161.182 110.997 162.052 110.997C163.09 110.997 163.974 110.717 164.704 110.155L166.472 114.786C165.798 115.263 164.985 115.627 164.031 115.88C163.105 116.104 162.136 116.217 161.126 116.217ZM149.172 98.7905V93.7394H164.872V98.7905H149.172ZM178.925 116.217C176.259 116.217 174.183 115.543 172.695 114.196C171.208 112.821 170.464 110.787 170.464 108.093V88.2254H177.031V108.009C177.031 108.963 177.283 109.706 177.788 110.24C178.294 110.745 178.981 110.997 179.851 110.997C180.889 110.997 181.773 110.717 182.503 110.155L184.271 114.786C183.597 115.263 182.783 115.627 181.829 115.88C180.903 116.104 179.935 116.217 178.925 116.217ZM166.971 98.7905V93.7394H182.671V98.7905H166.971ZM198.497 116.217C195.915 116.217 193.642 115.712 191.678 114.701C189.741 113.691 188.24 112.316 187.174 110.576C186.107 108.808 185.574 106.802 185.574 104.557C185.574 102.284 186.093 100.278 187.132 98.538C188.198 96.7701 189.643 95.3951 191.467 94.4129C193.291 93.4027 195.354 92.8976 197.655 92.8976C199.872 92.8976 201.864 93.3746 203.632 94.3287C205.428 95.2548 206.845 96.6017 207.883 98.3696C208.921 100.109 209.441 102.2 209.441 104.641C209.441 104.894 209.427 105.189 209.398 105.525C209.37 105.834 209.342 106.129 209.314 106.409H190.92V102.579H205.863L203.337 103.715C203.337 102.537 203.099 101.512 202.622 100.643C202.145 99.7727 201.485 99.0992 200.643 98.6221C199.801 98.117 198.819 97.8645 197.697 97.8645C196.574 97.8645 195.578 98.117 194.708 98.6221C193.866 99.0992 193.207 99.7867 192.73 100.685C192.253 101.555 192.014 102.593 192.014 103.8V104.81C192.014 106.044 192.281 107.139 192.814 108.093C193.375 109.019 194.147 109.735 195.129 110.24C196.139 110.717 197.318 110.955 198.665 110.955C199.872 110.955 200.924 110.773 201.822 110.408C202.748 110.043 203.59 109.496 204.347 108.766L207.841 112.555C206.803 113.733 205.498 114.645 203.926 115.291C202.355 115.908 200.545 116.217 198.497 116.217ZM213.812 115.88V93.2343H220.084V99.6324L219.2 97.7803C219.874 96.1808 220.954 94.9741 222.441 94.1604C223.928 93.3185 225.738 92.8976 227.871 92.8976V98.9589C227.59 98.9308 227.338 98.9168 227.113 98.9168C226.889 98.8887 226.65 98.8747 226.398 98.8747C224.602 98.8747 223.143 99.3938 222.02 100.432C220.926 101.442 220.379 103.028 220.379 105.189V115.88H213.812Z" fill="white"/>
</svg>
